<?xml version="1.0" encoding="UTF-8"?> <svg xmlns="http://www.w3.org/2000/svg" width="152" height="32" viewBox="0 0 152 32"><path data-name="Path 11" d="M488.69 76.95v5.558h-10.012v25.767H472.8V82.508h-10.02V76.95z" transform="translate(-399.973 -76.62)" style="fill:#003d3b"></path><path data-name="Path 12" d="M662.29 76.95v5.558h-10.012v25.767H646.4V82.508h-10.02V76.95z" transform="translate(-543.913 -76.62)" style="fill:#003d3b"></path><path data-name="Path 13" d="m114.772 95.906 6.648 12.41h-6.352L108.7 96.422H95.17v-5.553h16.43a4.159 4.159 0 1 0 0-8.317H95.17V77h16.43a9.7 9.7 0 0 1 3.168 18.906z" transform="translate(-95.17 -76.662)" style="fill:#003d3b"></path><path data-name="Path 14" d="M821.316 75.338V79.4a13.831 13.831 0 0 0-10.4-4.4 16 16 0 1 0 0 32 13.855 13.855 0 0 0 10.4-4.4v4.07h5.91V75.338zm0 17.048a10.291 10.291 0 1 1 0-2.771 10.076 10.076 0 0 1 0 2.771z" transform="translate(-675.226 -75)" style="fill:#003d3b"></path><path data-name="Path 15" d="M299.05 93.545a16 16 0 0 0-12.294-18.068 16.175 16.175 0 0 0-19.091 10.835 15.95 15.95 0 0 0 9.538 19.632 16.22 16.22 0 0 0 20.467-8h-6.887a10.447 10.447 0 0 1-10.216 3.076 10.329 10.329 0 0 1-7.552-7.474zm-26.174-4.4a10.407 10.407 0 0 1 20.424 0z" transform="translate(-237.59 -75.048)" style="fill:#003d3b"></path></svg>
